<svg width="1920" height="456" viewBox="0 0 1920 456" fill="none" xmlns="http://www.w3.org/2000/svg">
<g clip-path="url(#clip0_28_1369)">
<g clip-path="url(#clip1_28_1369)">
<rect width="1920" height="160" fill="#00232E"/>
<path fill-rule="evenodd" clip-rule="evenodd" d="M1329 72.7973C1292.75 15.2944 1295.66 -62.1186 1325.03 -116.689C1352.01 -166.8 1410.05 -183.454 1465.71 -181.173C1509.93 -179.361 1545.51 -142.095 1578.87 -106.287C1607.64 -75.4046 1629.85 -40.1659 1636.12 1.73479C1643.81 53.1282 1651.47 114.025 1616.28 143.703C1580.87 173.57 1528.63 143.515 1481.75 131.946C1426.96 118.421 1361.91 125.011 1329 72.7973Z" fill="#EEE0C9"/>
<path fill-rule="evenodd" clip-rule="evenodd" d="M162.282 0.973188C162.678 -28.8083 208.834 -43.6049 232.157 -67.2124C257.942 -93.311 262.192 -138.891 305.982 -144.478C350.241 -150.124 379.999 -107.943 420.136 -91.1935C453.593 -77.2325 495.263 -75.8796 521.02 -54.744C549.484 -31.3861 563.204 -0.878613 567.541 29.7653C572.494 64.7608 585.734 111.121 547.239 130.506C506.213 151.166 450.012 113.125 399.384 114.444C363.16 115.388 334.032 145.229 299.002 136.974C263.807 128.679 252.44 96.6393 230.274 74.5899C205.678 50.1236 161.887 30.7341 162.282 0.973188Z" fill="#EEE0C9"/>
</g>
<rect width="1920" height="136" transform="translate(0 160)" fill="#00232E"/>
<g clip-path="url(#clip2_28_1369)">
<rect width="1920" height="160" transform="translate(0 296)" fill="#00232E"/>
<path fill-rule="evenodd" clip-rule="evenodd" d="M228.035 313.317C295.051 324.678 350.781 378.487 371.836 436.774C391.171 490.299 364.857 544.647 326.026 584.589C295.172 616.326 243.679 617.965 194.748 618.929C152.547 619.761 111.481 612.797 76.0837 589.515C32.6674 560.959 -17.8032 526.035 -16.4397 480.025C-15.0676 433.723 42.1773 414.853 82.0659 387.652C128.696 355.855 167.182 303.002 228.035 313.317Z" fill="#EEE0C9"/>
<path fill-rule="evenodd" clip-rule="evenodd" d="M1584.79 502.101C1572.68 483.376 1595.04 455.132 1599.65 430.806C1604.74 403.913 1588.45 373.753 1613.18 352.224C1638.16 330.465 1674.04 344.491 1705.77 338.389C1732.22 333.302 1758.51 316.972 1783.18 319.53C1810.45 322.358 1831.58 335.718 1846.97 353.03C1864.55 372.8 1891.96 396.239 1876.23 424.185C1859.47 453.97 1808.99 453.422 1778.27 475.109C1756.3 490.626 1750.69 521.229 1725.64 530.52C1700.46 539.856 1680.15 524.57 1657.32 519.963C1631.98 514.85 1596.9 520.813 1584.79 502.101Z" fill="#EEE0C9"/>
</g>
</g>
<defs>
<clipPath id="clip0_28_1369">
<rect width="1920" height="456" fill="white"/>
</clipPath>
<clipPath id="clip1_28_1369">
<rect width="1920" height="160" fill="white"/>
</clipPath>
<clipPath id="clip2_28_1369">
<rect width="1920" height="160" fill="white" transform="translate(0 296)"/>
</clipPath>
</defs>
</svg>
