<svg width="360" height="136" viewBox="0 0 360 136" fill="none" xmlns="http://www.w3.org/2000/svg">
<g clip-path="url(#clip0_77_2)">
<rect width="360" height="136" fill="#00232E"/>
<path fill-rule="evenodd" clip-rule="evenodd" d="M356.809 -68.4123C370.758 -73.6967 386.566 -53.1346 402.067 -45.7146C419.204 -37.5116 441.256 -43.7604 452.317 -22.6959C463.496 -1.4062 449.597 21.3744 449.548 44.7088C449.508 64.1589 456.927 85.4317 452.058 102.318C446.676 120.98 435.116 133.52 421.68 141.351C406.336 150.294 387.299 165.51 370.834 149.658C353.286 132.764 360.149 97.4049 349.755 72.1049C342.318 54.003 322.792 44.8019 319.871 25.6088C316.936 6.32468 329.664 -5.30997 335.653 -20.5533C342.298 -37.4675 342.87 -63.1315 356.809 -68.4123Z" fill="#EEE0C9"/>
<path fill-rule="evenodd" clip-rule="evenodd" d="M-22.9888 112.132C-41.8281 79.4911 -45.3833 38.7407 -36.3633 11.7025C-28.0803 -13.1265 -4.62747 -18.3474 18.9904 -13.7041C37.7564 -10.0146 55.0627 11.8856 71.3461 32.8785C85.3893 50.9834 96.9329 70.9864 102.165 93.5274C108.584 121.175 115.573 153.845 102.565 167.364C89.4745 180.968 65.5809 161.851 45.0954 152.839C21.1478 142.305 -5.8823 141.771 -22.9888 112.132Z" fill="#EEE0C9"/>
</g>
<defs>
<clipPath id="clip0_77_2">
<rect width="360" height="136" fill="white"/>
</clipPath>
</defs>
</svg>
